<svg width="32" height="32" xmlns="http://www.w3.org/2000/svg" fill="none">
    <g>
        <path d="m0.99599,6.8675c-0.00002,-0.01104 -0.00896,-0.01999 -0.02,-0.02l0,-0.00001l-0.06129,0c-0.00253,-0.00811 -0.01006,-0.01404 -0.01903,-0.01406l-0.01438,0c-0.01104,0.00001 -0.01999,0.00896 -0.02001,0.02l0,0.07094c0.00002,0.01103 0.00897,0.01998 0.02001,0.02l0.09469,0c0.01103,-0.00002 0.01998,-0.00897 0.02,-0.02l0,-0.05688l-0.00001,0l0.00002,0.00001zm-0.11468,-0.02407l0.01438,0c0.00523,-0.00002 0.00959,0.00417 0.00992,0.00938l0.00029,0.00469l0.07011,0c0.00547,0.00001 0.00999,0.00453 0.01,0.01l0,0.00248c-0.00296,-0.00173 -0.00634,-0.00279 -0.01,-0.00279l-0.09469,0c-0.00366,0.00001 -0.00705,0.00107 -0.01,0.0028l0,-0.01655c0.00002,-0.00547 0.00454,-0.00999 0.01001,-0.01l-0.00002,-0.00001zm0.09469,0.09094l-0.09469,0c-0.00547,-0.00001 -0.00999,-0.00454 -0.01001,-0.01l0,-0.03719l0.00001,0c0.00001,-0.00548 0.00453,-0.01 0.01,-0.01001l0.09469,0c0.00547,0.00001 0.00996,0.00451 0.01,0.00996l0,0.03724c-0.00002,0.00548 -0.00454,0.01 -0.01001,0.01001l0.00001,-0.00001z" id="svg_5" stroke="null"/>
        <path transform="rotate(5.75293 14.4697 27.499)" stroke="null" id="svg_7" d="m14.53705,25.87367c-0.00002,-0.83818 -0.00896,-1.51731 -0.02,-1.51845l0,-0.00038l-0.06129,0c-0.00253,-0.61573 -0.01006,-1.06595 -0.01903,-1.06709l-0.01438,0c-0.01104,0.00076 -0.01999,0.68027 -0.02001,1.51845l0,5.38594c0.00002,0.83743 0.00897,1.51655 0.02001,1.51807l0.09469,0c0.01103,-0.00152 0.01998,-0.68065 0.02,-1.51807l0,-4.31847l-0.00001,0zm-0.11468,-1.82708l0.01438,0c0.00523,-0.00152 0.00959,0.3166 0.00992,0.71215l0.00029,0.3557l0.07011,0c0.00547,0.00076 0.00999,0.34393 0.01,0.75923l0,0.18791c-0.00296,-0.13097 -0.00634,-0.21144 -0.01,-0.21182l-0.09469,0c-0.00366,0.00038 -0.00705,0.08124 -0.01,0.2122l0,-1.25614c0.00002,-0.4153 0.00454,-0.75847 0.01001,-0.75923zm0.09469,6.9044l-0.09469,0c-0.00547,-0.00076 -0.00999,-0.34469 -0.01001,-0.75923l0,-2.82356l0.00001,0c0.00001,-0.41568 0.00453,-0.75885 0.01,-0.7596l0.09469,0c0.00547,0.00076 0.00996,0.34203 0.01,0.75581l0,2.82698c-0.00002,0.41568 -0.00454,0.75885 -0.01001,0.7596z"/>
        <path style="--darkreader-inline-fill: #525a5d;" stroke="null" id="svg_8" d="m31.70919,9.94806c-0.00468,-3.13459 -2.09691,-5.67434 -4.67944,-5.6786l0,-0.00142l-14.34256,0c-0.59093,-2.30267 -2.35318,-3.98638 -4.45243,-3.99063l-3.36419,0c-2.5837,0.00284 -4.6771,2.54401 -4.68178,5.6786l0,20.14199c0.00468,3.13175 2.09808,5.6715 4.68178,5.67718l22.16035,0c2.58019,-0.00568 4.67476,-2.54543 4.67944,-5.67718l0,-16.14993l-0.00117,0zm-26.83863,-6.83277l3.36419,0c1.22398,-0.00568 2.24318,1.18399 2.32041,2.66326l0.06787,1.33021l16.40788,0c1.27898,0.00284 2.3368,1.2862 2.33914,2.8393l0,0.70273c-0.69156,-0.48978 -1.48375,-0.79074 -2.34031,-0.79216l-22.16035,0c-0.85655,0.00142 -1.64992,0.30381 -2.34031,0.79358l0,-4.69762c0.00351,-1.5531 1.06133,-2.83646 2.34148,-2.8393zm22.15918,25.82059l-22.15918,0c-1.27898,-0.00284 -2.3368,-1.28904 -2.34148,-2.8393l0,-10.55935l0.00117,0c0.00234,-1.55452 1.06016,-2.83788 2.34031,-2.84072l22.16035,0c1.27898,0.00284 2.32977,1.2791 2.34031,2.82652l0,10.57213c-0.00468,1.55452 -1.0625,2.83788 -2.34148,2.84072z" fill="#6C707E"/>
        <g id="svg_9">
            <path style="--darkreader-inline-fill: #525a5d;" fill-rule="evenodd" clip-rule="evenodd" d="m16.83942,16.88686c0,1.933 -1.567,3.5 -3.5,3.5c-1.933,0 -3.5,-1.567 -3.5,-3.5c0,-1.933 1.567,-3.5 3.5,-3.5c1.933,0 3.5,1.567 3.5,3.5zm-1.5,0c0,1.10457 -0.89543,2 -2,2c-1.10457,0 -2,-0.89543 -2,-2c0,-1.10457 0.89543,-2 2,-2c1.10457,0 2,0.89543 2,2z" fill="#6C707E" id="svg_1"/>
            <path style="--darkreader-inline-fill: #525a5d;" fill-rule="evenodd" clip-rule="evenodd" d="m7.76305,28.38686l11.15237,0c0.5577,0 0.9997,-0.4537 0.9131,-1.004c-0.3051,-1.9382 -1.5359,-6.00524 -6.49272,-5.996c-4.95502,0.0093 -6.1821,4.0636 -6.48556,5.997c-0.08632,0.5499 0.35557,1.003 0.91281,1.003zm9.37187,-3.8196c0.5534,0.721 0.877,1.5764 1.0624,2.3196l-9.71577,0c0.18471,-0.74 0.50716,-1.5915 1.0589,-2.3105c0.69143,-0.9011 1.80442,-1.6858 3.79815,-1.6895c1.99205,-0.0037 3.10432,0.7787 3.79632,1.6804z" fill="#6C707E" id="svg_2"/>
            <path style="--darkreader-inline-fill: #525a5d;" d="m17.11382,20.16626c0.3815,0.14262 0.7944,0.2206 1.2256,0.2206c1.933,0 3.5,-1.567 3.5,-3.5c0,-1.933 -1.567,-3.5 -3.5,-3.5c-0.4312,0 -0.8441,0.07798 -1.2256,0.22059c0.3401,0.39111 0.6204,0.83558 0.8267,1.3192c0.1289,-0.02609 0.2623,-0.03979 0.3989,-0.03979c1.1046,0 2,0.89543 2,2c0,1.10457 -0.8954,2 -2,2c-0.1366,0 -0.27,-0.0137 -0.3989,-0.03979c-0.2063,0.48362 -0.4866,0.92809 -0.8267,1.31919z" fill="#6C707E" id="svg_3"/>
            <path style="--darkreader-inline-fill: #525a5d;" d="m19.73022,23.03356c-0.0684,-0.0982 -0.1396,-0.1957 -0.2137,-0.2923c-0.379,-0.4937 -0.8273,-0.9529 -1.352,-1.3524c0.0566,-0.0012 0.1137,-0.0019 0.1713,-0.002c4.9569,-0.00924 6.1876,4.0578 6.4928,5.996c0.0866,0.5503 -0.3555,1.004 -0.9132,1.004l-2.7355,0c0.1466,-0.3658 0.2017,-0.7838 0.1304,-1.2373c-0.0132,-0.0835 -0.0279,-0.1712 -0.0445,-0.2627l1.9315,0c-0.1854,-0.7432 -0.509,-1.5986 -1.0624,-2.3196c-0.5109,-0.6657 -1.2508,-1.2664 -2.4047,-1.5337z" fill="#6C707E" id="svg_4"/>
            <path d="m23.44996,23.07923c-0.00222,-1.08003 -0.99575,-1.9551 -2.2221,-1.95657l0,-0.00049l-6.81077,0c-0.28061,-0.79339 -1.11744,-1.37351 -2.1143,-1.37498l-1.59753,0c-1.22691,0.00098 -2.22099,0.87654 -2.22321,1.95657l0,6.93995c0.00222,1.07905 0.99631,1.95412 2.22321,1.95608l10.52316,0c1.22524,-0.00196 2.21988,-0.87703 2.2221,-1.95608l0,-5.56448l-0.00056,0zm-12.7447,-2.35424l1.59753,0c0.58122,-0.00196 1.06521,0.40794 1.10188,0.91763l0.03223,0.45833l7.79152,0c0.60734,0.00098 1.10966,0.44316 1.11077,0.97828l0,0.24213c-0.3284,-0.16875 -0.70458,-0.27245 -1.11133,-0.27294l-10.52316,0c-0.40675,0.00049 -0.78349,0.10468 -1.11133,0.27343l0,-1.61857c0.00167,-0.53512 0.50399,-0.97731 1.11188,-0.97828l0.00001,-0.00001zm10.52261,8.89652l-10.52261,0c-0.60734,-0.00098 -1.10966,-0.44414 -1.11188,-0.97828l0,-3.63824l0.00056,0c0.00111,-0.53561 0.50343,-0.9778 1.11133,-0.97877l10.52316,0c0.60734,0.00098 1.10633,0.44072 1.11133,0.97388l0,3.64264c-0.00222,0.53561 -0.50454,0.9778 -1.11188,0.97877l-0.00001,0z" id="svg_6" stroke="null"/>
        </g>
    </g>

</svg>